<?xml version="1.0"?>
<svg xmlns="http://www.w3.org/2000/svg" id="bold" enable-background="new 0 0 24 24" height="512px" viewBox="0 0 24 24" width="512px"><g><path d="m20.97 8.27-.75.75c-.93-.34-1.93-.52-2.97-.52-4.82 0-8.75 3.93-8.75 8.75 0 1.04.18 2.04.52 2.97l-1.22 1.22-2.65-2.65-2.59-2.59.08-.08 12.53-12.52.55-.55 2.53 2.52 2.71 2.69z" data-original="#000000" class="active-path" data-old_color="#000000" fill="#FFFFFF"/><path d="m2.142 17.196-2.102 5.794c-.09.28-.03.58.18.79.14.14.33.22.53.22.09 0 .17-.01.26-.04l5.794-2.102z" data-original="#000000" class="active-path" data-old_color="#000000" fill="#FFFFFF"/><path d="m22.88 1.06c-.71-.7-1.65-1.05-2.63-1.08-.99.01-1.92.41-2.61 1.11l-1.221 1.247c.002.002.005.003.007.004l2.53 2.52 2.709 2.688c.002.002.003.005.005.007l1.24-1.266c.69-.69 1.07-1.62 1.07-2.59v-.04c0-.99-.4-1.91-1.1-2.6z" data-original="#000000" class="active-path" data-old_color="#000000" fill="#FFFFFF"/><path d="m17.25 10.5c-3.722 0-6.75 3.028-6.75 6.75s3.028 6.75 6.75 6.75 6.75-3.028 6.75-6.75-3.028-6.75-6.75-6.75zm2.75 7.75h-1.75v1.75c0 .552-.448 1-1 1s-1-.448-1-1v-1.75h-1.75c-.552 0-1-.448-1-1s.448-1 1-1h1.75v-1.75c0-.552.448-1 1-1s1 .448 1 1v1.75h1.75c.552 0 1 .448 1 1s-.448 1-1 1z" data-original="#000000" class="active-path" data-old_color="#000000" fill="#FFFFFF"/></g> </svg>
