<?xml version="1.0"?>
<svg xmlns="http://www.w3.org/2000/svg" id="Capa_1" enable-background="new 0 0 480.08 480.08" height="512px" viewBox="0 0 480.08 480.08" width="512px"><g><g><path d="m184.06 64.08c-17.673 0-32-14.327-32-32s14.327-32 32-32 32 14.327 32 32c-.02 17.664-14.335 31.98-32 32zm0-48c-8.837 0-16 7.163-16 16s7.163 16 16 16 16-7.163 16-16c-.01-8.833-7.168-15.99-16-16z" data-original="#000000" class="active-path" data-old_color="#000000" fill="#FFFFFF"/><path d="m40.06 208.08c-17.673 0-32-14.327-32-32s14.327-32 32-32 32 14.327 32 32c-.02 17.664-14.335 31.98-32 32zm0-48c-8.837 0-16 7.163-16 16s7.163 16 16 16 16-7.163 16-16c-.01-8.833-7.168-15.99-16-16z" data-original="#000000" class="active-path" data-old_color="#000000" fill="#FFFFFF"/><path d="m93.06 117.08c-17.673 0-32-14.327-32-32s14.327-32 32-32 32 14.327 32 32c-.02 17.664-14.335 31.98-32 32zm0-48c-8.837 0-16 7.163-16 16s7.163 16 16 16 16-7.163 16-16c-.01-8.833-7.168-15.99-16-16z" data-original="#000000" class="active-path" data-old_color="#000000" fill="#FFFFFF"/><path d="m235.982 480.08c-64.425.099-126.258-25.37-171.922-70.817v30.817c0 17.673-14.327 32-32 32s-32-14.327-32-32v-143.994c.001-17.673 14.328-31.999 32.002-31.998 2.333 0 4.66.255 6.937.761l144 32c17.284 3.688 28.305 20.69 24.617 37.974s-20.69 28.305-37.974 24.617c-.175-.037-.35-.076-.525-.117l-78.846-17.523c10.273 14.131 22.526 26.71 36.382 37.351 31.35 24.074 69.803 37.062 109.329 36.929 99.296 0 180.078-80.691 180.078-179.876.133-39.686-12.999-78.278-37.31-109.646-23.782-30.773-56.828-53.084-94.259-63.64-17.071-4.574-27.202-22.121-22.627-39.192s22.121-27.202 39.192-22.627c.205.055.41.112.615.171 50.732 14.291 95.524 44.515 127.765 86.21 82.125 106.772 62.144 259.903-44.627 342.027-42.67 32.819-94.997 50.6-148.827 50.573zm-179.922-99.259c2.35 0 4.58 1.033 6.1 2.825 81.5 96.019 225.408 107.789 321.427 26.289 51.013-43.3 80.436-106.819 80.473-173.731.163-50.296-16.485-99.203-47.3-138.954-30.125-38.966-71.98-67.212-119.387-80.57-8.533-2.295-17.311 2.763-19.606 11.296-2.266 8.425 2.636 17.112 11.019 19.529 40.757 11.489 76.74 35.778 102.636 69.282 26.478 34.163 40.781 76.194 40.638 119.417 0 108.007-87.96 195.876-196.078 195.876-43.041.143-84.912-14.004-119.047-40.221-20.625-15.854-37.941-35.599-50.967-58.117-2.208-3.827-.896-8.719 2.931-10.928 1.734-1 3.779-1.315 5.733-.88l97.957 21.767c8.611 1.982 17.199-3.392 19.181-12.003s-3.392-17.199-12.003-19.181c-.079-.018-.157-.036-.236-.052l-144-32c-8.626-1.917-17.173 3.522-19.09 12.148-.253 1.141-.381 2.306-.381 3.474v143.993c0 8.837 7.163 16 16 16s16-7.163 16-16v-51.26c0-4.418 3.582-8 8-8z" data-original="#000000" class="active-path" data-old_color="#000000" fill="#FFFFFF"/></g></g> </svg>
